<svg width="58" height="30" viewBox="0 0 58 30" fill="none" xmlns="http://www.w3.org/2000/svg">
<path d="M35.8676 16.8852L35.8627 16.8632L35.872 16.8823C36.8513 16.4062 38.06 16.4145 39.0378 16.6896C39.524 16.8264 39.9226 17.0209 40.1877 17.225C40.4703 17.4424 40.5162 17.5994 40.5162 17.6515V17.653C40.5162 17.6928 40.5163 17.7665 40.3675 17.9394C40.1982 18.1361 39.873 18.4163 39.2553 18.8413C38.027 19.6863 35.7732 21.0173 31.6742 23.3082C27.9979 25.3265 23.0535 27.7255 21.1749 28.6098L21.1735 28.6105C21.0261 28.6804 20.8648 28.7045 20.7072 28.6815L20.6351 29.1763L20.7072 28.6815C20.5494 28.6586 20.398 28.5888 20.2712 28.4767L20.2699 28.4756L16.9247 25.539L17.3663 25.349C17.5456 25.2824 17.7401 25.2827 17.9193 25.35L17.928 25.3533L17.9369 25.3563L19.8008 25.9779C20.0602 26.0677 20.336 26.0966 20.6082 26.0618C20.8816 26.0269 21.1427 25.929 21.373 25.7766L21.3745 25.7755C22.3073 25.1532 24.4451 23.7724 26.8513 22.2581L27.631 21.7675L26.7947 21.3811L20.5622 18.5015L21.4512 18.236L21.4512 18.236L21.4544 18.235C21.8478 18.1146 22.2605 18.0843 22.6652 18.1458L22.6678 18.1462L31.2045 19.3979L31.3813 19.4239L31.5345 19.3318C33.3225 18.2579 34.8788 17.3499 35.8676 16.8852Z" fill="#0B655A" stroke="#0B655A"/>
<path d="M57 29C57 13.536 44.464 1 29 1C13.536 1 1 13.536 1 29" stroke="#0B655A" stroke-linecap="round" stroke-dasharray="0.5 4"/>
</svg>
